<?xml version="1.0" standalone="no"?>
<!DOCTYPE svg PUBLIC "-//W3C//DTD SVG 20010904//EN"
 "http://www.w3.org/TR/2001/REC-SVG-20010904/DTD/svg10.dtd">
<svg version="1.0" xmlns="http://www.w3.org/2000/svg"
 width="1700.000000pt" height="1700.000000pt" viewBox="0 0 1700.000000 1700.000000"
 preserveAspectRatio="xMidYMid meet">
<metadata>
Created by potrace 1.11, written by Peter Selinger 2001-2013
</metadata>
<g transform="translate(0.000000,1700.000000) scale(0.100000,-0.100000)"
fill="#000000" stroke="none">
<path d="M8320 16293 c-36 -2 -155 -10 -265 -19 -110 -8 -261 -19 -335 -24
-157 -11 -435 -50 -601 -86 -64 -13 -140 -29 -170 -34 -30 -5 -88 -19 -129
-30 -41 -11 -88 -23 -105 -25 -16 -2 -66 -16 -110 -29 -44 -14 -87 -26 -97
-26 -9 0 -58 -13 -108 -30 -50 -16 -97 -30 -103 -30 -6 0 -57 -14 -112 -31
-397 -124 -630 -220 -1105 -455 -194 -96 -294 -150 -575 -309 -44 -25 -177
-112 -330 -215 -154 -104 -496 -370 -709 -549 -304 -257 -441 -394 -767 -770
-248 -284 -408 -489 -556 -711 -32 -47 -61 -89 -66 -95 -12 -14 -92 -141 -122
-195 -13 -25 -52 -90 -85 -145 -33 -55 -73 -125 -90 -155 -17 -30 -53 -95 -80
-145 -126 -227 -278 -545 -353 -740 -19 -49 -46 -119 -60 -155 -28 -74 -127
-366 -132 -391 -2 -9 -15 -53 -29 -98 -14 -44 -28 -93 -30 -108 -3 -16 -16
-71 -30 -123 -66 -256 -196 -900 -197 -975 0 -16 -7 -48 -15 -70 -21 -53 -32
-140 -39 -296 -3 -71 -10 -182 -16 -246 -5 -65 -12 -294 -16 -508 -5 -312 -2
-435 11 -610 9 -121 18 -251 21 -290 8 -105 52 -394 81 -535 15 -69 28 -138
30 -155 2 -16 12 -64 24 -105 11 -41 25 -97 30 -125 5 -27 19 -81 31 -120 12
-38 23 -82 25 -98 2 -15 15 -62 29 -104 14 -43 25 -84 25 -91 0 -8 13 -54 30
-103 16 -49 32 -99 34 -111 3 -13 14 -50 26 -83 12 -33 23 -69 25 -79 3 -11
17 -51 32 -90 15 -39 28 -76 29 -82 1 -5 13 -35 26 -65 14 -30 29 -65 33 -79
4 -14 17 -47 30 -75 12 -27 39 -88 60 -135 59 -133 287 -597 342 -696 69 -125
65 -117 139 -244 58 -99 180 -284 280 -426 64 -91 189 -259 196 -264 4 -3 47
-58 95 -122 278 -366 538 -642 913 -967 80 -69 172 -150 206 -181 33 -31 109
-93 170 -139 60 -47 114 -89 119 -96 13 -14 226 -167 318 -227 67 -45 105 -68
297 -185 94 -58 393 -230 423 -244 12 -6 54 -28 92 -49 142 -78 413 -206 498
-236 20 -7 52 -20 70 -28 17 -8 50 -22 72 -30 22 -7 78 -28 125 -46 204 -76
651 -225 705 -234 12 -2 59 -15 105 -29 159 -47 571 -134 671 -142 24 -2 121
-15 214 -29 195 -29 508 -63 705 -76 261 -18 546 -10 965 25 99 9 232 20 296
25 136 10 393 50 564 87 66 14 134 27 150 30 30 4 132 30 312 79 51 14 103 27
115 29 51 10 378 108 469 142 37 13 78 26 92 28 13 3 44 13 68 24 60 25 82 34
96 37 15 3 318 131 355 150 15 8 30 15 33 15 20 1 601 296 733 373 34 20 90
52 125 72 34 19 69 42 78 50 8 8 18 14 22 14 17 0 295 192 480 332 531 401
867 709 1212 1113 66 77 143 166 172 198 64 70 222 273 321 410 72 101 222
325 222 331 0 2 25 44 56 92 31 49 60 98 65 109 6 11 27 48 47 83 132 223 402
737 402 765 0 2 12 31 27 63 15 33 28 64 29 69 1 6 11 31 22 55 18 40 66 168
109 290 8 25 21 59 28 75 18 47 66 188 70 209 3 11 16 49 29 85 14 36 27 77
30 91 2 14 15 59 29 100 34 107 81 283 116 440 33 145 90 455 89 480 -1 8 11
96 25 195 64 440 88 822 76 1191 -10 296 -45 748 -74 950 -14 93 -25 179 -25
190 1 44 -66 344 -146 659 -16 61 -29 116 -30 123 -4 22 -52 189 -85 289 -16
51 -29 98 -29 106 0 7 -11 42 -25 78 -14 35 -28 76 -30 90 -3 14 -16 52 -30
83 -14 31 -25 62 -25 68 0 6 -11 36 -24 67 -14 31 -43 101 -66 156 -110 264
-341 733 -482 980 -192 335 -476 731 -836 1162 -231 278 -440 485 -792 787
-63 54 -122 106 -130 115 -25 28 -308 252 -410 324 -147 104 -406 272 -490
317 -25 14 -59 35 -76 47 -17 13 -34 23 -37 23 -3 0 -57 30 -119 66 -282 165
-523 286 -798 400 -58 24 -109 44 -115 44 -5 0 -22 7 -38 15 -15 7 -60 25
-100 39 -39 14 -130 46 -202 71 -71 26 -150 52 -175 60 -25 7 -110 33 -190 59
-189 59 -308 94 -344 100 -16 3 -74 17 -130 31 -56 13 -115 26 -131 28 -17 2
-95 16 -175 30 -294 53 -727 106 -1040 127 -126 9 -432 10 -580 3z m314 -5233
c219 -14 440 -58 707 -140 89 -28 100 -34 151 -87 303 -320 550 -778 678
-1258 63 -236 129 -635 151 -917 15 -188 7 -255 -70 -565 -68 -270 -85 -355
-79 -375 21 -57 -253 -590 -352 -685 -31 -29 -42 -49 -49 -88 -10 -53 -2 -44
-184 -210 -78 -71 -203 -161 -269 -196 -72 -37 -85 -94 -29 -123 21 -11 38
-12 71 -5 65 15 231 74 289 103 28 14 56 26 63 26 7 0 65 25 128 57 109 53
141 64 183 64 9 0 17 4 17 10 0 5 8 9 17 9 25 0 173 83 303 169 117 77 206
147 294 230 55 52 188 225 210 274 30 65 46 110 41 115 -2 2 0 13 5 22 11 21
-6 32 -39 23 -37 -9 -25 20 61 149 86 129 150 258 250 498 184 441 263 769
306 1275 l8 90 20 -39 c14 -26 35 -45 65 -60 34 -16 51 -34 75 -76 17 -30 52
-75 77 -100 31 -31 61 -79 98 -155 65 -135 65 -136 40 -106 -12 13 -21 20 -21
17 0 -3 -9 3 -20 14 -12 12 -33 20 -54 20 l-35 0 5 -72 c3 -39 9 -92 15 -117
124 -551 136 -1159 33 -1721 -106 -578 -333 -1127 -661 -1603 -113 -163 -279
-372 -331 -418 -55 -47 -279 -175 -514 -294 -289 -147 -418 -180 -1193 -301
-267 -41 -302 -42 -358 -9 -48 28 -152 57 -412 115 -913 204 -1475 471 -1978
941 -184 172 -384 420 -521 647 -101 165 -205 359 -252 469 -193 452 -353
1193 -315 1458 73 502 249 1098 401 1364 73 127 130 201 262 344 297 321 989
826 1426 1041 l126 61 323 5 324 5 26 34 c35 45 81 62 183 71 126 10 142 10
304 0z"/>
</g>
</svg>
